<svg width="312" height="82" xmlns="http://www.w3.org/2000/svg"><path d="M307 0a5 5 0 0 1 5 5v27a9 9 0 1 0 0 18v27a5 5 0 0 1-5 5H5a5 5 0 0 1-5-5V50a9 9 0 0 0 0-18V5a5 5 0 0 1 5-5h302Zm-31 74.75a.75.75 0 0 0-.75.75v2a.75.75 0 1 0 1.5 0v-2a.75.75 0 0 0-.75-.75ZM267 5H5v22.92c5.263 2.013 9 7.11 9 13.08 0 5.86-3.6 10.878-8.71 12.965L5 54.08V77h262v-1h-1V6h1V5Zm39 0h-21v1h20v21.73l-.332.18a14.997 14.997 0 0 0-7.664 12.732L297 41l.004.343a14.997 14.997 0 0 0 7.658 12.742l.307.168.031.016V76h-20v1h21V53.653c-4.73-2.247-8-7.068-8-12.653 0-5.47 3.138-10.209 7.713-12.512l.287-.14V5Zm-40 1v70H5.999V54.75l.284-.125a15.004 15.004 0 0 0 8.713-13.277L15 41l-.004-.341A15.004 15.004 0 0 0 6.59 27.52l-.307-.146L6 27.25V6H266Zm10 58.75a.75.75 0 0 0-.75.75v5a.75.75 0 1 0 1.5 0v-5a.75.75 0 0 0-.75-.75Zm0-10a.75.75 0 0 0-.75.75v5a.75.75 0 1 0 1.5 0v-5a.75.75 0 0 0-.75-.75Zm0-10a.75.75 0 0 0-.75.75v5a.75.75 0 1 0 1.5 0v-5a.75.75 0 0 0-.75-.75Zm0-10a.75.75 0 0 0-.75.75v5a.75.75 0 1 0 1.5 0v-5a.75.75 0 0 0-.75-.75Zm0-10a.75.75 0 0 0-.75.75v5a.75.75 0 1 0 1.5 0v-5a.75.75 0 0 0-.75-.75Zm0-10a.75.75 0 0 0-.75.75v5a.75.75 0 1 0 1.5 0v-5a.75.75 0 0 0-.75-.75Zm0-10a.75.75 0 0 0-.75.75v5a.75.75 0 1 0 1.5 0v-5a.75.75 0 0 0-.75-.75Z" fill="#ff0571" fill-rule="evenodd"/></svg>